<?xml version="1.0" encoding="UTF-8"?>
<svg id="Layer_1" data-name="Layer 1" xmlns="http://www.w3.org/2000/svg" viewBox="324 309 642 151" width="642" height="151">
  <defs>
    <style>
      .cls-1 {
        fill: #679d70;
      }

      .cls-2 {
        fill: #2b2b29;
      }
    </style>
  </defs>
  <g>
    <g>
      <polygon class="cls-1" points="370.55 416.88 382.22 441.58 426.86 440.92 440.24 416.88 370.55 416.88"/>
      <polygon class="cls-1" points="334.73 449.55 352.65 449.55 370.55 416.88 352.76 416.88 334.73 449.55"/>
    </g>
    <g>
      <polygon class="cls-1" points="396.61 341.05 431.36 401.46 446.95 379.03 424.12 340.67 396.61 341.05"/>
      <polygon class="cls-1" points="468.86 400.8 431.36 401.46 440.23 416.88 468.86 416.47 468.86 400.8"/>
    </g>
    <g>
      <polygon class="cls-1" points="352.76 416.88 387.79 356.64 360.58 354.31 338.71 393.23 352.76 416.88"/>
      <polygon class="cls-1" points="364.09 319.45 387.79 356.64 396.73 341.26 382.38 319.45 364.09 319.45"/>
    </g>
  </g>
  <g>
    <path class="cls-2" d="M523.17,377.72l45.93,39.77h-23.11l-36.9-33.03v33.03h-16.76v-73.4h16.76v27.48l35.01-27.48h23.51l-44.44,33.62Z"/>
    <path class="cls-2" d="M626.77,347.47c6.91,3.31,12.32,7.9,16.22,13.79,3.9,5.89,5.85,12.5,5.85,19.84s-1.95,13.82-5.85,19.64c-3.9,5.82-9.29,10.4-16.17,13.74-6.88,3.34-14.62,5.01-23.21,5.01s-16-1.67-23.01-5.01c-7.01-3.34-12.56-7.94-16.66-13.79-4.1-5.85-6.15-12.38-6.15-19.59s2.05-13.85,6.15-19.74c4.1-5.88,9.64-10.5,16.61-13.84,6.98-3.34,14.63-5.01,22.96-5.01s16.35,1.65,23.26,4.96ZM617.2,402.92c4.3-1.92,7.77-4.74,10.41-8.48,2.64-3.73,3.97-8.18,3.97-13.34s-1.34-9.52-4.02-13.29c-2.68-3.77-6.18-6.65-10.51-8.63-4.33-1.98-8.91-2.98-13.74-2.98-5.16,0-9.87.99-14.13,2.98-4.27,1.98-7.65,4.83-10.17,8.53-2.51,3.7-3.77,8.1-3.77,13.19s1.3,9.7,3.92,13.44c2.61,3.74,6.07,6.58,10.37,8.53,4.3,1.95,8.96,2.93,13.99,2.93s9.39-.96,13.69-2.88Z"/>
    <path class="cls-2" d="M720.26,417.3l-20.33-23.71h-26.29v23.71h-16.46v-73.4h51.88c6.15,0,11.59,1.03,16.32,3.07,4.73,2.05,8.4,4.91,11.01,8.58,2.61,3.67,3.92,7.92,3.92,12.75v.4c0,6.28-1.84,11.47-5.51,15.57-3.67,4.1-8.75,6.84-15.23,8.23l21.33,24.8h-20.63ZM721.3,360.86c-1.42-1.72-3.22-2.78-5.41-3.17s-5.26-.6-9.22-.6c-1.79,0-3.31.03-4.56.1-8.93.2-18.42.3-28.47.3v22.91h33.03c3.97,0,7.04-.18,9.22-.55,2.18-.36,3.98-1.35,5.41-2.98,1.42-1.62,2.13-4.22,2.13-7.79,0-3.77-.71-6.51-2.13-8.23Z"/>
    <path class="cls-2" d="M822.28,399.64c-3.41,5.55-8.27,9.92-14.58,13.09-6.32,3.17-13.64,4.76-21.97,4.76h-36.5v-73.4h36.4c8.4,0,15.76,1.57,22.07,4.71,6.31,3.14,11.17,7.51,14.58,13.09,3.41,5.59,5.11,11.92,5.11,18.99s-1.7,13.19-5.11,18.75ZM787.01,402.92c7.01,0,12.73-1.9,17.16-5.7,4.43-3.8,6.64-9.24,6.64-16.32,0-3.97-1.04-7.65-3.12-11.06-2.08-3.4-4.94-6.1-8.58-8.08s-7.67-2.98-12.1-2.98h-21.03v44.14h21.03Z"/>
    <path class="cls-2" d="M852.87,417.5h-16.76v-73.4h16.76v73.4Z"/>
    <path class="cls-2" d="M955.63,417.5h-17.46l-8.43-15.57h-46.32l-8.43,15.57h-17.46l39.77-73.4h18.55l39.77,73.4ZM906.63,359.17l-15.87,29.16h31.64l-15.77-29.16Z"/>
  </g>
</svg>